<svg width="2118" height="883" xmlns="http://www.w3.org/2000/svg" xmlns:xlink="http://www.w3.org/1999/xlink" xml:space="preserve" overflow="hidden"><defs><clipPath id="clip0"><rect x="336" y="283" width="2118" height="883"/></clipPath></defs><g clip-path="url(#clip0)" transform="translate(-336 -283)"><path d="M336 344.898C336 310.713 363.712 283 397.898 283L2392.1 283C2426.29 283 2454 310.713 2454 344.898L2454 1104.1C2454 1138.29 2426.29 1166 2392.1 1166L397.898 1166C363.712 1166 336 1138.29 336 1104.1Z" fill="#FFFFFF" fill-rule="evenodd"/><path d="M630.633 1036.27C627.959 1036.73 625.529 1036.86 623.099 1036.86 572.587 1036.87 522.074 1036.71 471.563 1036.93 447.808 1037.04 426.08 1017.06 422.075 995.103 421.303 990.876 421.037 986.747 421.036 982.54 421.021 796.138 421.043 609.736 421 423.333 420.994 398.151 440.348 375.855 464.058 372.182 468.071 371.561 472.004 371.155 476.013 371.154 621.26 371.143 766.507 371.185 911.754 371 917.68 370.992 919.004 372.479 919 378.305 918.837 595.538 918.841 812.77 918.983 1030 918.986 1035.49 917.695 1037.02 912.066 1037 838.429 1036.79 764.792 1036.84 690.589 1036.75 688.751 1033.23 691.896 1033.26 693.564 1032.37 704.446 1026.52 713.858 1018.98 719.438 1007.77 728.576 989.4 726.442 964.699 709.671 948.632 706.961 946.035 705.661 941.879 700.973 940.802 691.072 935.003 680.337 932.656 670.084 929.074 659.046 925.218 647.95 921.531 636.923 917.638 625.733 913.688 624.119 914.409 617.732 924.473 617.083 925.495 616.443 926.521 615.191 927.649 600.121 932.189 592.722 943.56 589.275 957.028 584.059 977.406 588.422 996.526 602.351 1012.48 609.044 1020.14 617.631 1026.08 626.493 1031.35 628.333 1032.44 630.724 1033.11 630.633 1036.27Z" fill="#FCB03C" fill-rule="evenodd"/><path d="M2130.21 1133.9C2104.86 1133.9 2080.12 1133.89 2055.38 1133.9 2052.39 1133.91 2049.67 1134.7 2049.68 1129.59 2049.68 1124.37 2052.59 1125.38 2055.47 1125.38 2158.9 1125.37 2262.32 1125.54 2365.74 1125.27 2392.67 1125.2 2414.46 1107.68 2421.06 1080.8 2422.03 1076.86 2422.26 1072.95 2422.26 1068.94 2422.24 834.421 2422.23 599.899 2422.25 365.376 2422.25 337.372 2400.66 312.232 2372.45 309.559 2365.81 308.929 2359.23 308.622 2352.63 308.621 1711.82 308.575 1071 308.568 430.184 308.61 403.383 308.612 380.123 323.629 372.947 350.574 371.768 355.001 370.724 359.364 370.725 363.989 370.753 598.511 370.822 833.034 370.645 1067.56 370.626 1092.9 386.704 1115.02 410.065 1122.57 415.729 1124.4 421.594 1125.39 427.604 1125.39 530.824 1125.37 634.044 1125.36 737.264 1125.45 739.49 1125.46 743.093 1123.44 743.228 1128.73 743.339 1133.07 742.069 1134.02 737.856 1134 705.005 1133.81 672.153 1133.9 639.301 1133.9 567.919 1133.9 496.537 1133.88 425.155 1133.91 402.142 1133.91 384.977 1123.13 372.046 1104.89 364.122 1093.72 361.106 1080.73 361.099 1067.31 360.983 834.006 360.958 600.701 361.084 367.396 361.101 335.989 379.019 311.168 409.756 301.937 413.898 300.693 418.213 300 422.675 300 1071.81 300.06 1720.94 300.018 2370.07 300.224 2391.97 300.232 2408.83 311.496 2421.02 329.547 2429.3 341.81 2431.98 355.649 2431.98 370.192 2431.97 602.686 2432.09 835.18 2431.83 1067.67 2431.8 1097.23 2416.59 1119.36 2387.95 1130.8 2382.76 1132.87 2377.04 1133.99 2371.12 1133.98 2291.02 1133.85 2210.92 1133.9 2130.21 1133.9Z" fill="#482814" fill-rule="evenodd"/><path d="M1368.05 662.045C1353.27 641.658 1343.07 619.034 1329.84 598.22 1324.9 590.431 1309.5 585.041 1300.69 587.456 1298.62 588.024 1298.88 589.29 1298.88 590.619 1298.88 611.529 1298.62 632.445 1299.05 653.346 1299.24 662.454 1303.79 666.858 1313.22 668.945 1315.52 669.455 1318.11 670.385 1320.17 670.139 1326.56 669.373 1327.36 672.253 1327.13 677.658 1326.96 681.603 1326.01 682.677 1322.05 682.643 1299.31 682.45 1276.56 682.549 1253.82 682.549 1249.55 682.549 1245.29 682.549 1241.03 682.549 1232.87 682.549 1233.08 682.546 1233 674.581 1232.96 671.043 1234.12 670.413 1237.44 670.211 1241.92 669.938 1246.44 668.94 1250.75 667.641 1261.11 664.523 1262.09 655.219 1262.16 646.951 1262.55 597.623 1262.42 548.29 1262.31 498.959 1262.28 485.949 1257.9 479.388 1248.41 476.884 1245.33 476.07 1241.96 475.812 1238.98 475.716 1230.82 475.454 1235.04 469.802 1234.45 466.618 1233.5 461.451 1237.89 463.338 1240.16 463.329 1267.58 463.213 1295.01 462.565 1322.39 463.517 1338.34 464.071 1354.55 463.96 1369.96 470.342 1388.36 477.957 1400.7 495.123 1401.37 514.669 1401.85 528.513 1400.21 541.599 1391.61 553.132 1384.76 562.33 1375.95 568.988 1365.63 573.613 1361.44 575.493 1359.83 576.356 1362.75 581.533 1376.65 606.135 1390.81 630.581 1408.05 652.984 1414.69 661.616 1422.65 669.756 1433.44 673.565 1438.19 675.241 1434.79 678.273 1435.24 680.531 1435.6 682.339 1434.94 684.985 1431.77 684.998 1413.11 685.076 1394.76 683.609 1378.83 672.504 1374.89 669.76 1371.82 665.776 1368.05 662.045Z" fill="#482814" fill-rule="evenodd"/><path d="M1048.46 505.924C1047.88 500.363 1049.05 495.43 1047.48 490.36 1044.54 480.883 1041.03 477.342 1031.17 476.665 1028.55 476.486 1025.94 475.801 1023.65 475.102 1019.53 473.84 1022.48 469.629 1021.84 466.781 1021.45 465.024 1021.49 462.968 1024.37 463.201 1025.58 463.299 1026.8 463.212 1028.01 463.212 1055.9 463.212 1083.81 462.594 1111.68 463.468 1126 463.917 1140.54 464 1154.51 469.121 1172.39 475.675 1183.27 491.963 1184.4 509.048 1186.45 540.164 1165.96 555.533 1141.67 562.013 1140.44 562.341 1139.35 562.497 1138.57 563.916 1141.77 566.411 1145.83 565.981 1149.44 566.895 1165.93 571.073 1181.18 577.275 1190.88 592.453 1198.64 604.595 1199.6 617.9 1195.96 631.488 1189 657.442 1169.42 669.715 1145.7 676.775 1127.64 682.15 1108.95 683.079 1090.2 682.994 1068.17 682.895 1046.14 682.953 1024.11 682.993 1021.38 682.998 1018.31 683.307 1019.44 679.186 1020.27 676.167 1016 670.613 1023.76 670.605 1028.41 670.6 1033.33 669.775 1037.65 668.086 1045.07 665.184 1048.31 661.059 1048.37 648.122 1048.6 600.925 1048.46 553.727 1048.46 505.924Z" fill="#482814" fill-rule="evenodd"/><path d="M1818.78 755.276C1830.67 757.82 1841.76 761.146 1851.99 766.803 1880.15 782.39 1897.41 806.105 1904.4 837.59 1906.8 848.383 1908.42 859.24 1907.91 870.247 1906.33 904.419 1895.54 934.627 1868.77 957.363 1855 969.06 1838.82 976.182 1821.19 979.641 1799.96 983.807 1779 982.596 1758.62 974.887 1730.1 964.097 1710.15 944.604 1698.73 916.102 1693.34 902.643 1690.88 888.903 1690.17 874.417 1688.68 843.811 1696.92 816.32 1715.96 792.756 1732.2 772.641 1753.63 760.262 1779.57 756.38 1787.87 755.138 1796.12 753.894 1804.53 754.007 1809.13 754.069 1813.56 755.995 1818.78 755.276Z" fill="#482714" fill-rule="evenodd"/><path d="M2266.3 685.856C2247.8 686.676 2230.66 684.069 2214.24 676.265 2194.25 666.767 2179 652.606 2167.98 633.426 2155.07 610.961 2151.16 586.469 2153.76 561.413 2158.81 512.724 2187.56 474.08 2237.05 462.36 2267.39 455.174 2297.01 459.304 2323.57 476.794 2346.33 491.791 2360.23 513.412 2367.1 539.703 2370.58 552.997 2371.64 566.583 2370.64 580.177 2368.29 611.993 2357.48 640.206 2332.56 661.273 2317.27 674.196 2299.38 681.97 2279.38 684.809 2275.19 685.402 2271.08 685.79 2266.3 685.856Z" fill="#482714" fill-rule="evenodd"/><path d="M2023.91 508.531C2022.43 510.824 2022.82 512.893 2022.75 514.888 2020.66 569.105 2021.72 623.345 2021.7 677.575 2021.7 683.437 2020.14 684.203 2014.55 684.873 2003.83 686.159 2001.22 677.417 1996.6 671.903 1982.73 655.377 1969.63 638.201 1956.28 621.244 1940.24 600.863 1924.46 580.272 1908.15 560.106 1896.8 546.083 1885.43 532.091 1874.41 517.811 1874.03 517.311 1873.59 516.311 1872.11 516.927 1872.11 518.708 1872.11 520.653 1872.11 522.598 1872.13 557.956 1871.9 593.317 1872.36 628.669 1872.46 636.306 1873.18 644.063 1874.34 651.75 1875.91 662.109 1882.86 666.319 1891.64 668.585 1894.02 669.2 1896.61 669.783 1899.18 670.049 1901.48 670.288 1904.88 668.684 1905.84 671.059 1906.9 673.669 1906.11 677.019 1906.17 680.046 1906.21 682.735 1904.21 682.107 1902.73 682.109 1877.84 682.136 1852.95 682.087 1828.06 682.186 1825.27 682.197 1824.84 681.129 1824.74 678.66 1824.41 670.467 1824.3 670.454 1834.08 668.816 1846.81 666.686 1851.53 659.896 1852.81 647.553 1857.68 600.337 1854.02 552.999 1855.15 505.733 1855.47 492.219 1845.65 480.043 1830.8 477.358 1829.64 477.148 1828.25 477.271 1827.37 476.659 1825.46 475.325 1822.14 477.577 1821.43 475.081 1820.62 472.277 1821.2 469.079 1821.18 466.052 1821.17 463.903 1822.73 464.087 1824.14 464.087 1840.94 464.084 1857.74 463.817 1874.53 464.234 1880.16 464.374 1881.84 470.589 1884.89 474.145 1897.05 488.284 1908.52 503.008 1920.28 517.48 1934.31 534.732 1948.32 551.999 1962.45 569.166 1974.46 583.75 1986.58 598.238 1998.76 612.673 2000.79 615.072 2001.91 618.273 2005.05 619.848 2006.53 618.63 2005.7 616.916 2005.7 615.484 2005.76 583.786 2006.16 552.078 2005.51 520.392 2005.31 510.633 2004.86 500.663 2002.32 490.961 2000.58 484.339 1995.99 481.024 1990.38 478.873 1986.39 477.344 1981.95 476.999 1977.7 476.152 1975.41 475.695 1971.98 477.457 1971 475.149 1969.9 472.571 1970.67 469.213 1970.59 466.196 1970.53 463.531 1972.5 464.1 1974 464.099 1998.69 464.076 2023.38 464.151 2048.06 464.003 2051.49 463.983 2051.96 465.297 2051.98 468.229 2052 473 2052.66 476.152 2045.25 476.55 2031.25 477.301 2024.42 486.582 2023.97 501.91 2023.92 503.927 2023.96 505.947 2023.91 508.531Z" fill="#482815" fill-rule="evenodd"/><path d="M2036.16 872.886C2025.53 859.679 2015.18 846.806 2004.88 833.9 1998.71 826.18 1992.62 818.409 1985.32 809.186 1985.32 812.908 1985.32 814.812 1985.32 816.716 1985.32 842.268 1985.61 867.825 1985.21 893.37 1984.99 907.326 1986.7 921.16 1986.78 935.097 1986.82 941.827 1987.07 949.284 1990.93 955.187 1995.92 962.829 2004.23 964.677 2012.82 965.005 2018.4 965.218 2022.07 971.445 2019.3 976.218 2018.51 977.571 2017.21 977.187 2016.07 977.188 1991.13 977.208 1966.19 977.142 1941.24 977.275 1937.82 977.293 1937.52 975.536 1937.97 973.15 1938.52 970.228 1935.73 965.707 1941.49 965.084 1943.88 964.826 1946.4 965.113 1948.68 964.502 1963.55 960.524 1965.68 954.231 1967.1 940.081 1971.64 894.89 1968.72 849.577 1969.45 804.326 1969.74 785.836 1959.05 773.58 1941.33 771.309 1938.98 771.008 1934.38 772.501 1934.05 766.786 1933.7 760.844 1935.13 758.886 1941.47 759.189 1954.01 759.789 1966.67 760.17 1979.15 759.105 1988.71 758.29 1994.19 762.261 1999.56 769.261 2009.87 782.691 2020.91 795.551 2031.58 808.699 2041.37 820.754 2051.01 832.927 2060.82 844.956 2070.78 857.167 2080.9 869.256 2090.92 881.416 2099.55 891.879 2108.17 902.349 2116.72 912.876 2117.48 913.814 2118.01 915.154 2119.3 914.944 2121 914.668 2120.36 913.035 2120.36 911.967 2120.4 882.359 2120.96 852.734 2120.09 823.152 2119.78 812.63 2119.55 801.953 2118.01 791.417 2116.09 778.243 2109.19 774.017 2096.6 771.571 2094.66 771.196 2092.5 770.802 2090.74 770.841 2082.73 771.02 2085.44 765.365 2085.15 761.397 2084.95 758.697 2087.15 759.394 2088.6 759.392 2113.34 759.358 2138.08 759.403 2162.82 759.318 2165.54 759.308 2167.46 759.882 2166.54 762.879 2165.74 765.459 2169.71 770.295 2163.08 770.398 2160.36 770.44 2157.62 771.225 2154.93 771.862 2144.49 774.338 2139.49 781.542 2138.73 791.725 2137.78 804.313 2136.19 816.858 2136.2 829.518 2136.23 877.986 2136.15 926.454 2136.32 974.921 2136.33 979.578 2135.28 980.929 2130.43 980.997 2124.04 981.087 2120.1 979.213 2116.01 973.815 2101.46 954.633 2085.93 936.197 2070.94 917.347 2059.32 902.736 2047.94 887.928 2036.16 872.886Z" fill="#482714" fill-rule="evenodd"/><path d="M1593.77 636.844C1590.83 628.615 1588.21 620.775 1585.51 612.964 1584.66 610.504 1583.08 609.504 1580.18 609.529 1560.3 609.701 1540.42 609.586 1520.54 609.687 1519.07 609.694 1517.14 608.534 1516.14 611.329 1511.16 625.234 1505.98 639.09 1502.93 653.563 1501 662.746 1504.6 667.537 1513.87 669.297 1516 669.702 1518.28 670.59 1520.22 670.433 1524.92 670.051 1524.45 672.648 1524.87 675.883 1525.66 682.004 1523.29 683.097 1517.6 682.994 1496.92 682.618 1476.22 682.857 1455.53 682.83 1453.11 682.827 1449.41 683.739 1450.63 679.34 1451.46 676.333 1446.8 670.995 1454.63 670.511 1473.69 669.334 1481.11 655.426 1487.03 639.859 1499.19 607.867 1511.56 575.953 1523.91 544.035 1533.86 518.342 1544.28 492.828 1553.62 466.916 1555.74 461.013 1560.06 462.403 1563.42 460.965 1567.6 459.18 1570.43 459.405 1572.55 465.692 1585.33 503.53 1598.93 541.085 1612.42 578.678 1620.92 602.382 1629.57 626.034 1638.4 649.615 1643.21 662.448 1652.58 669.564 1666.41 670.684 1672.85 671.206 1668.45 676.288 1669.47 679.102 1670.42 681.708 1669.05 682.925 1666 682.912 1638.82 682.797 1611.63 682.834 1584.45 682.867 1582.25 682.87 1579.94 682.808 1580.82 679.832 1581.72 676.791 1577.96 672.332 1583.17 670.752 1585.38 670.082 1587.76 669.618 1590.12 669.242 1599.39 667.768 1602.37 662.472 1599.49 653.435 1597.77 648.01 1595.87 642.639 1593.77 636.844Z" fill="#482714" fill-rule="evenodd"/><path d="M1447.82 832.333C1460.82 842.199 1475.64 847.969 1489.24 855.897 1503.51 864.219 1517.3 873.003 1525.66 888.253 1534.47 904.338 1535.06 920.968 1528.97 937.583 1519.78 962.614 1500.11 974.828 1474.83 979.969 1450.98 984.818 1428.53 980.567 1406.44 971.644 1404.25 970.756 1402.93 969.603 1402.55 967.885 1400.02 956.517 1397.68 945.108 1396.3 933.523 1395.81 929.404 1395.22 925.279 1394.34 921.228 1393.66 918.053 1393.65 916.277 1397.64 915.172 1405.94 912.874 1405.57 912.618 1408.61 920.606 1414.85 937.015 1423.44 952.065 1438.6 961.736 1454.78 972.061 1475.36 971.43 1488.55 957.59 1500.37 945.189 1501.31 923.889 1490.86 909.566 1481.87 897.242 1468.64 890.708 1455.8 883.84 1441.41 876.14 1427.38 868.282 1415.72 856.46 1398.76 839.252 1395.41 813.822 1405.13 793.178 1416.15 769.76 1435.81 759.016 1461.02 755.695 1479.37 753.278 1496.39 757.588 1513.62 762.064 1517.24 763.004 1517.53 765.968 1517.92 769.069 1519.61 782.781 1521.46 796.474 1523.25 810.184 1511.32 812.731 1511.41 812.698 1506.96 800.859 1503.02 790.365 1497.99 780.621 1488.14 774.227 1473.21 764.538 1452 766.831 1441.24 779.267 1428.75 793.683 1430.22 815.345 1443.58 828.216 1444.9 829.481 1446.16 830.796 1447.82 832.333Z" fill="#482814" fill-rule="evenodd"/><path d="M1082.53 780.419C1083.13 789.544 1086.95 797.199 1089.86 805.102 1104.59 845.051 1119.42 884.961 1134.24 924.876 1134.37 925.209 1134.84 925.416 1135.5 925.995 1138.78 922.938 1139.12 918.373 1140.47 914.665 1154.38 876.508 1169.15 838.657 1181.4 799.914 1182.82 795.426 1184.47 791.019 1184.97 786.194 1185.62 780.041 1183.86 775.876 1178.23 773.98 1174.9 772.858 1171.41 772.063 1167.94 771.533 1161.93 770.619 1159.26 766.796 1160.64 760.855 1161.34 757.855 1163.62 759.397 1165.01 759.388 1183.87 759.255 1202.74 759.298 1221.6 759.297 1224.85 759.297 1228.09 759.297 1231.34 759.297 1238.25 759.299 1240.17 761.942 1238.35 768.759 1237.76 770.984 1236.3 771.466 1234.29 771.488 1216.87 771.684 1207.92 783.248 1202.02 797.234 1190.51 824.557 1179.81 852.232 1169 879.847 1157.91 908.176 1147.06 936.603 1136.16 965.006 1134.68 968.852 1133.46 972.8 1132.16 976.713 1131.16 979.73 1129.4 981.014 1125.95 981 1116.41 980.962 1116.23 981.227 1112.6 971.517 1099.62 936.768 1086.93 901.909 1073.83 867.208 1064.19 841.689 1054.32 816.253 1044.06 790.977 1039.36 779.384 1030.88 771.75 1017.53 771.514 1011.17 771.402 1013.66 766.75 1013.13 763.6 1012.55 760.175 1013.94 759.204 1017.4 759.222 1044.98 759.359 1072.57 759.352 1100.15 759.236 1103.98 759.22 1104.23 760.147 1104.12 764.022 1103.86 773.407 1096.71 771.428 1091.58 772.611 1087.21 773.619 1083.69 775.16 1082.53 780.419Z" fill="#482714" fill-rule="evenodd"/><path d="M938.869 746.002C938.869 841.104 938.817 935.597 939 1030.09 939.011 1035.56 937.726 1037.21 931.99 1036.98 920.166 1036.51 920.152 1036.84 920.152 1025.21 920.152 809.656 920.181 594.105 920 378.555 919.995 372.51 921.305 370.707 927.657 371.037 938.845 371.62 938.869 371.199 938.869 382.222 938.869 503.279 938.869 624.336 938.869 746.002Z" fill="#482714" fill-rule="evenodd"/><path d="M1764.93 463.258C1773.01 463.259 1780.48 463.389 1787.95 463.195 1790.91 463.118 1792.45 464.268 1791.49 466.957 1790.49 469.771 1794.8 474.429 1788.45 475.493 1784.91 476.085 1781.3 476.181 1777.86 476.913 1768.52 478.895 1763.82 485.508 1763.78 497.39 1763.64 547.802 1763.19 598.224 1764.03 648.622 1764.3 665.149 1767.93 668.444 1787.13 670.442 1794.19 671.177 1790.87 675.424 1791.57 678.405 1792.49 682.329 1790.48 682.994 1786.93 682.977 1758.87 682.835 1730.8 682.809 1702.74 683 1698.83 683.026 1697.46 681.734 1698.32 678.214 1699 675.43 1695.45 670.568 1702.35 670.551 1707.58 670.538 1712.94 669.77 1717.81 667.436 1726.81 663.126 1727.05 654.089 1727.12 646.382 1727.58 598.007 1727.39 549.625 1727.29 501.246 1727.28 497.284 1726.72 493.247 1725.83 489.381 1723.97 481.286 1719.2 477.525 1710.2 476.67 1708.21 476.48 1706.3 476.533 1704.41 475.529 1702.59 474.564 1699.31 476.833 1698.52 474.227 1697.68 471.435 1698.06 468.165 1698.36 465.148 1698.68 461.843 1701.5 463.339 1703.15 463.33 1723.54 463.22 1743.94 463.258 1764.93 463.258Z" fill="#482714" fill-rule="evenodd"/><path d="M1590.9 934.235C1590.9 886.798 1591.1 839.965 1590.79 793.134 1590.68 777.098 1584.91 772.029 1569.15 771.262 1562.28 770.927 1559.69 767.378 1561.62 760.638 1562.24 758.465 1563.72 759.088 1564.93 759.086 1594.42 759.043 1623.91 759.082 1653.4 759 1656.03 758.993 1657.15 759.69 1656.83 762.397 1656.42 765.84 1658.51 770.469 1652.57 771.163 1649.03 771.577 1645.52 771.182 1641.89 772.258 1633.64 774.706 1629.34 778.364 1628.89 786.642 1628.52 793.656 1627.37 800.577 1627.4 807.661 1627.63 848.613 1627.62 889.567 1627.4 930.519 1627.37 937.003 1628.48 943.324 1628.98 949.703 1629.73 959.326 1637.83 964.616 1649.89 964.647 1653.74 964.657 1656.95 964.288 1657 970.054 1657.04 975.409 1655.85 977.067 1650.14 976.998 1622.49 976.661 1594.83 976.783 1567.17 976.918 1563.36 976.936 1561.1 976.678 1561.54 971.896 1561.91 967.893 1561.17 963.864 1567.33 964.65 1572.42 965.298 1577.24 963.549 1581.8 961.839 1589.29 959.023 1589.88 951.764 1590.81 945.166 1591.3 941.788 1590.9 938.285 1590.9 934.235Z" fill="#482714" fill-rule="evenodd"/><path d="M1323.41 976.833C1304.72 976.833 1286.64 976.716 1268.56 976.925 1264.63 976.97 1263.11 976.009 1263.57 971.966 1263.97 968.503 1262.5 964.079 1268.61 964.682 1274.12 965.224 1279.39 963.734 1284.21 961.619 1291.67 958.346 1292.73 950.822 1292.76 944.063 1293.04 893.458 1293.01 842.85 1292.85 792.244 1292.8 778.082 1285.68 771.55 1271.32 771.402 1263.82 771.325 1261.84 768.563 1263.6 761.164 1264.39 757.852 1266.82 759.331 1268.45 759.321 1287.75 759.207 1307.05 759.247 1326.35 759.247 1335.49 759.247 1344.64 759.231 1353.78 759.258 1356.24 759.265 1359.28 758.304 1358.85 762.816 1358.48 766.594 1360.1 771.267 1353.73 771.399 1350.15 771.473 1346.65 771.504 1343.07 772.504 1336.21 774.42 1331.79 778.361 1330.8 785.112 1330.12 789.839 1329.57 794.636 1329.56 799.403 1329.47 845.151 1329.47 890.9 1329.57 936.648 1329.58 941.614 1330.01 946.65 1330.93 951.525 1332.5 959.824 1340.42 964.634 1351.96 964.641 1355.88 964.644 1358.94 964.384 1359 970.129 1359.05 975.643 1357.6 977.261 1352.05 976.968 1342.73 976.475 1333.36 976.833 1323.41 976.833Z" fill="#482714" fill-rule="evenodd"/><path d="M631.648 1036.99C628.125 1032.36 622.945 1030.67 618.833 1027.67 607.726 1019.59 596.939 1011.69 591.951 997.849 589.259 990.383 587.472 982.873 586.357 975.102 585.324 967.903 586.652 960.764 588.857 954.188 592.324 943.845 598.105 934.756 607.853 928.79 609.916 927.527 611.783 926.952 614.504 927.003 616.408 927.803 616.792 929.265 616.685 930.643 616.093 938.272 619.77 944.255 624.065 950.511 623.073 957.075 619.514 961.928 615.242 966.128 613.16 968.177 612.54 969.759 613.537 972.458 615.297 977.22 615.856 982.518 618.158 986.952 625.118 1000.36 634.577 1010.48 650.786 1012.86 658.882 1014.05 666.826 1013.79 674.845 1013.81 675.581 1013.81 677.357 1013.46 677.948 1012.05 678.875 1009.84 680.066 1007.92 682.893 1009.38 684.573 1010.25 684.246 1008.51 684.795 1008.01 694.739 998.89 699.394 988.345 694.106 974.781 692.637 971.012 691.441 967.098 689.995 962.836 690.351 959.551 692.674 958.03 694.266 956.003 697.965 951.291 699.626 945.721 701.182 939.647 707.85 938.373 709.097 944.687 712.031 947.751 719.38 955.427 725.15 964.542 726.417 975.595 727.881 988.365 726.88 1001.17 720.05 1012.1 713.189 1023.07 702.611 1030.54 690.79 1036.5 671.202 1036.97 651.708 1037.02 631.648 1036.99Z" fill="#EFA739" fill-rule="evenodd"/><path d="M784.017 1099.22C788.166 1099.22 791.853 1098.64 795.267 1099.37 799.846 1100.36 804.402 1102.47 805.393 1107.88 806.512 1114 804.3 1118.85 798.159 1121.91 802.766 1124.89 808.252 1126.72 807.991 1133.86 807.699 1141.86 802.525 1147.82 794.561 1147.94 785.849 1148.06 777.134 1147.96 767 1147.96 772.538 1145.96 773.223 1142.14 773.266 1138.21 773.376 1128.09 773.207 1117.96 773.353 1107.84 773.406 1104.16 771.705 1101.66 768.735 1099.22 773.976 1099.22 778.705 1099.22 784.017 1099.22Z" fill="#482815" fill-rule="evenodd"/><path d="M955 1125.01C955.588 1116.06 956.424 1107.6 964.116 1101.88 972.444 1095.68 981.777 1096.17 990.652 1099.03 998.357 1101.51 1002.72 1107.92 1004.24 1116.27 1005.83 1124.99 1005.2 1133.2 999.582 1140.21 992.33 1149.27 981.866 1150.35 971.93 1147.81 961.33 1145.11 955.637 1136.81 955 1125.01Z" fill="#492915" fill-rule="evenodd"/><path d="M1746.48 1135.16C1747.18 1139.75 1744.05 1145.16 1752.01 1147 1745.13 1147 1739.55 1147 1733 1147 1737.13 1144.85 1738.14 1142.15 1738.05 1138.45 1737.8 1127.66 1737.93 1116.86 1737.99 1106.06 1738.01 1103.41 1738.14 1100.88 1735.04 1099.12 1742.99 1099.12 1750.96 1098.79 1758.89 1099.22 1766.31 1099.61 1771.04 1105.46 1771 1113.15 1770.96 1119.39 1765.38 1124.92 1758.4 1125.56 1756.61 1125.72 1754.6 1126.45 1753.16 1126.31 1746.11 1125.63 1745.88 1129.65 1746.48 1135.16Z" fill="#4A2A16" fill-rule="evenodd"/><path d="M1256.61 1114.92C1254.43 1109.93 1254.55 1105.67 1257.65 1101.56 1261.94 1095.88 1267.99 1096.92 1273.62 1097.58 1276.35 1097.9 1278.59 1098.98 1281.47 1097.39 1284.16 1095.91 1284.09 1099.01 1284.27 1100.49 1284.73 1104.22 1283.77 1108.03 1284.22 1112.11 1283.06 1110.42 1281.96 1108.69 1280.71 1107.07 1279.49 1105.48 1278.27 1103.85 1276.8 1102.51 1272.88 1098.9 1265.92 1098.72 1263.29 1102.01 1261.04 1104.84 1263.09 1111.41 1267.31 1114.41 1271.47 1117.38 1275.77 1120.16 1279.97 1123.07 1285.19 1126.7 1288.12 1133.93 1286.6 1139.28 1285.13 1144.44 1278.62 1148.68 1272.05 1148.71 1268.29 1148.72 1264.46 1149.2 1261.08 1146.73 1258.37 1144.75 1257.02 1148.42 1254.15 1149 1254.91 1143.29 1251.83 1138.35 1253.51 1131.5 1256.86 1136.86 1258.74 1141.86 1263.64 1144.47 1268.36 1146.98 1274.1 1146.86 1276.72 1143.45 1279.98 1139.2 1279.45 1133.92 1274.81 1129.99 1268.9 1124.99 1261.71 1121.6 1256.61 1114.92Z" fill="#492916" fill-rule="evenodd"/><path d="M1618 1132.89C1618.62 1125.32 1620.31 1119.04 1627.18 1115.45 1630.69 1113.62 1633.84 1112.55 1637.68 1114.27 1640.36 1115.47 1642.5 1114.77 1641.82 1111.08 1641.12 1107.25 1644.58 1101.49 1637.17 1100.52 1640.13 1097.32 1644.39 1098.68 1647.83 1096 1647.83 1110.02 1647.94 1123.31 1647.76 1136.59 1647.7 1140.46 1648.47 1143.38 1653 1144.92 1648.36 1146.03 1644.98 1150.16 1640.32 1146.81 1639.86 1146.48 1638.58 1147.34 1637.7 1147.7 1627.69 1151.83 1621.77 1145.46 1619.23 1137.99 1618.73 1136.5 1618.41 1134.94 1618 1132.89Z" fill="#492815" fill-rule="evenodd"/><path d="M1974.37 1135.84C1974.18 1139.97 1975.77 1142.58 1979 1144.82 1974.96 1144.54 1971.83 1149.73 1967.23 1146.09 1966.86 1145.8 1965.51 1146.81 1964.57 1147.08 1953.04 1150.45 1945.01 1144.32 1945 1132.17 1944.99 1122.13 1947.73 1118.05 1955.63 1114.41 1960.14 1112.33 1963.75 1114.76 1968.52 1115.5 1966.67 1110.63 1971.44 1104.3 1964.23 1100.38 1965.79 1098.1 1969.36 1098.77 1972.2 1098.11 1975.28 1097.4 1974.32 1100.28 1974.33 1101.77 1974.41 1112.95 1974.37 1124.13 1974.37 1135.84Z" fill="#492915" fill-rule="evenodd"/><path d="M1044.85 1099C1046.31 1099 1047.28 1099 1049.24 1099 1046.39 1100.93 1045.03 1102.21 1046.63 1105.37 1051.36 1114.7 1055.48 1124.34 1060.65 1133.88 1064.77 1122.4 1072.97 1112.45 1072.6 1099.18 1074.53 1099.18 1077.67 1099.18 1081 1099.18 1072.47 1113.05 1068.38 1128.88 1061.35 1143.43 1060.68 1144.83 1060.77 1146.85 1058.92 1146.99 1056.6 1147.17 1056.39 1144.68 1055.7 1143.23 1050.13 1131.45 1044.84 1119.54 1039.15 1107.82 1037.56 1104.53 1036.32 1100.54 1032 1099 1036.12 1099 1040.23 1099 1044.85 1099Z" fill="#492916" fill-rule="evenodd"/><path d="M1888.94 1117.27C1888.94 1125.44 1889.07 1133 1888.88 1140.55 1888.79 1144.3 1890.21 1145.5 1893.86 1145.54 1903.1 1145.64 1912.69 1147.03 1918 1136.19 1917.47 1139.19 1917.09 1142.23 1916.35 1145.18 1915.91 1146.97 1914.85 1148.03 1912.52 1148 1900.47 1147.83 1888.41 1147.92 1876 1147.54 1880.14 1146.9 1880.56 1144.33 1880.51 1140.93 1880.33 1129.3 1880.35 1117.66 1880.51 1106.02 1880.55 1103.07 1880.19 1100.65 1876.52 1099 1882.35 1099 1887.14 1099 1891.81 1099 1886.44 1104.2 1889.98 1110.83 1888.94 1117.27Z" fill="#482814" fill-rule="evenodd"/><path d="M1349.29 1115.08C1358.2 1115 1358.2 1115 1358.2 1123.09 1358.2 1127.52 1357.96 1131.97 1358.28 1136.38 1358.57 1140.31 1360 1143.94 1364.9 1144.01 1369.96 1144.07 1372.7 1141.23 1372.88 1136.33 1373.07 1131.5 1372.94 1126.66 1372.92 1121.83 1372.9 1118.33 1371.96 1115.56 1366.32 1116.21 1367.87 1115.38 1368.12 1115.14 1368.37 1115.13 1379.06 1114.71 1379.06 1114.72 1379.06 1125.08 1379.06 1129.71 1379.25 1134.35 1379 1138.97 1378.81 1142.38 1379.99 1144.26 1384 1144.4 1381.06 1146.28 1378.26 1147.12 1375.37 1147.73 1374.98 1147.81 1374.33 1148.19 1374.26 1148.1 1370.12 1142.64 1366.89 1148.99 1363.14 1149 1357.9 1149.01 1352.29 1144.24 1352.11 1138.57 1351.92 1132.53 1351.97 1126.49 1352.11 1120.45 1352.18 1117.74 1351.94 1115.68 1348.44 1116 1348.31 1116.02 1348.15 1115.74 1348 1115.6 1348.26 1115.44 1348.52 1115.27 1349.29 1115.08Z" fill="#482815" fill-rule="evenodd"/><path d="M1495.75 1147C1493 1147 1490.76 1147 1487.88 1147 1492.11 1143.47 1491.35 1139.11 1491.15 1135 1490.92 1130.09 1492.4 1125 1489.95 1120.29 1488.79 1118.05 1486.94 1115.8 1484.29 1116.93 1481.63 1118.07 1477.8 1118.7 1477.75 1122.82 1477.67 1129.25 1477.88 1135.69 1477.65 1142.12 1477.56 1144.63 1479.68 1145.23 1480.87 1146.88 1476.63 1146.88 1472.57 1146.88 1468.41 1146.88 1473.79 1140.4 1472.89 1119.86 1467 1117.02 1469.86 1114.78 1475.21 1113.04 1476.17 1114.09 1480.68 1119.03 1483.31 1113.28 1486.71 1113.03 1492.49 1112.61 1496.96 1116.38 1497.29 1123.24 1497.55 1128.66 1497.27 1134.1 1497.38 1139.52 1497.41 1141.43 1497.1 1143.25 1498.41 1145.22 1500.31 1148.08 1497.13 1146.5 1495.75 1147Z" fill="#482815" fill-rule="evenodd"/><path d="M913.034 1113.04C919.374 1113.68 922.334 1116.83 922.37 1122.55 922.404 1128.02 922.466 1133.49 922.344 1138.96 922.273 1142.08 922.753 1144.85 926 1147 921.744 1147 918.204 1147 914.211 1147 917.793 1143.03 916.131 1138.48 916.396 1134.23 916.597 1131 916.372 1127.75 916.452 1124.51 916.546 1120.69 916.493 1116.45 911.484 1116.87 907.359 1117.22 903.587 1119.5 903.412 1124.67 903.235 1129.93 903.401 1135.21 903.362 1140.48 903.343 1143 904.355 1144.95 906.577 1146.82 902.671 1146.82 899.12 1146.82 896.172 1146.82 898.739 1138.13 897.05 1129.08 897.256 1120.16 897.309 1117.86 894.781 1118.07 893 1117.52 895.364 1115.51 898.174 1115.05 900.834 1114.22 901.386 1114.05 902.338 1113.5 902.376 1113.56 906.115 1120.02 909.142 1112.38 913.034 1113.04Z" fill="#482815" fill-rule="evenodd"/><path d="M1579 1117.74C1581 1114.31 1585.32 1115.65 1588.29 1113.71 1592.15 1120.02 1595.26 1113.16 1598.77 1113.01 1604.09 1112.78 1608.98 1116.57 1609.17 1122.31 1609.36 1128.17 1609.36 1134.04 1609.15 1139.89 1609.04 1142.82 1609.41 1145.27 1613 1147 1608.44 1147 1604.75 1147 1601.73 1147 1603.94 1138.16 1603.39 1129.27 1602.28 1120.42 1601.97 1117.89 1599.46 1116.78 1596.82 1116.79 1593.17 1116.82 1590.15 1120.12 1590.02 1122.02 1589.46 1130.32 1587.48 1138.97 1591.64 1146.99 1588.31 1146.99 1584.25 1146.99 1579.66 1146.99 1582.22 1145.43 1583.42 1143.78 1583.29 1140.98 1583.01 1134.93 1583.15 1128.86 1583.23 1122.79 1583.26 1120.12 1582.94 1117.89 1579 1117.74Z" fill="#482815" fill-rule="evenodd"/><path d="M1220.65 1127.92C1221.63 1134.54 1218.4 1141.25 1223 1146.95 1220.04 1146.95 1216.65 1146.95 1213.4 1146.95 1215.93 1138.63 1214.57 1129.92 1214.34 1121.34 1214.29 1119.33 1211.87 1116.68 1208.79 1116.81 1205.14 1116.97 1202.23 1120.06 1201.97 1122.55 1201.19 1129.75 1201.68 1137.11 1201.92 1144.4 1201.94 1145.19 1203.53 1145.94 1204.73 1147 1200.54 1147 1196.71 1147 1192.94 1147 1197.91 1141.63 1196.62 1119.43 1191 1117.41 1193.55 1114.71 1198.97 1113.49 1199.81 1114.3 1204.73 1119.01 1207.83 1112.53 1211.91 1113.03 1216.41 1113.58 1220.24 1116.97 1220.63 1121.86 1220.77 1123.67 1220.65 1125.51 1220.65 1127.92Z" fill="#482815" fill-rule="evenodd"/><path d="M867.912 1144.85C869.256 1144.58 870.128 1144.19 871 1143.81 869.495 1147.36 865.646 1150.44 863.441 1148.29 859.266 1144.23 855.62 1146.72 852.287 1147.76 847.658 1149.2 844.035 1149.16 841.449 1144.89 838.736 1140.41 839.994 1136.62 843.882 1133.19 847.719 1129.8 852.032 1127.62 856.861 1126.25 860.651 1125.18 860.183 1121.94 859.621 1119.36 858.904 1116.05 855.897 1114.44 852.88 1114.36 850.12 1114.28 848.104 1115.98 848.707 1119.45 849.081 1121.61 848.624 1123.6 845.979 1124.01 844.021 1124.33 842.503 1122.83 842.303 1121.5 842.065 1119.92 842.19 1118.04 844.048 1116.56 849.318 1112.36 854.795 1112.11 860.742 1114.59 866.177 1116.85 865.645 1121.56 865.998 1126.27 866.461 1132.42 863.995 1138.84 867.912 1144.85Z" fill="#492916" fill-rule="evenodd"/><path d="M1680.69 1124.05C1675.65 1122.8 1676.25 1120.04 1678.42 1117.2 1681.74 1112.83 1687.74 1112.02 1694.52 1114.08 1700.02 1115.76 1700.84 1119.56 1700.63 1124.47 1700.4 1129.6 1700.62 1134.76 1700.57 1139.9 1700.53 1143.94 1702.79 1144.85 1707 1144.06 1703.47 1148.2 1699.99 1150.66 1695.72 1146.87 1693.72 1145.1 1692.48 1146.06 1691.05 1146.69 1687.68 1148.19 1684.22 1149.68 1680.59 1148.67 1675.15 1147.16 1673.16 1139.23 1676.98 1134.76 1680.34 1130.82 1684.78 1128.06 1689.73 1127.15 1694.79 1126.21 1694.78 1123.09 1694.29 1119.57 1693.82 1116.23 1691.61 1114.15 1688.15 1114.25 1684.26 1114.37 1682.92 1116.93 1683.23 1120.52 1683.37 1122.22 1682.45 1123.19 1680.69 1124.05Z" fill="#492916" fill-rule="evenodd"/><path d="M1296.4 1119.02C1303.43 1112.29 1309.38 1111.35 1317.1 1115.47 1322.61 1118.41 1326.94 1126.67 1325.82 1132.13 1323.83 1141.94 1318.57 1148.23 1310.65 1148.92 1303.68 1149.53 1298.02 1146.67 1294.55 1140.01 1290.75 1132.74 1291.06 1125.89 1296.4 1119.02Z" fill="#4A2A16" fill-rule="evenodd"/><path d="M1176.37 1114.4C1184.32 1119.24 1187.32 1126.69 1185.47 1136.05 1184.29 1142.05 1177.9 1147.63 1170.8 1148.87 1164.79 1149.92 1156.44 1144.29 1154.17 1137.65 1151.16 1128.84 1154.11 1119.89 1161.29 1115.41 1166.04 1112.45 1170.86 1112.34 1176.37 1114.4Z" fill="#492916" fill-rule="evenodd"/><path d="M1457.82 1118.3C1465.73 1129.08 1461.42 1141.62 1453.16 1145.91 1447.05 1149.08 1440.71 1148.66 1435.84 1144.54 1430.12 1139.71 1427.54 1131.99 1429.84 1125.24 1433.13 1115.55 1444.5 1107.17 1457.82 1118.3Z" fill="#492916" fill-rule="evenodd"/><path d="M1571.5 1100.7C1570.2 1102.9 1570 1104.8 1570.01 1106.84 1570.08 1118.13 1570.11 1129.41 1570 1140.69 1569.97 1143.77 1570.32 1146.24 1574 1147 1568.59 1147 1563.18 1147 1557 1147 1561.63 1145.38 1562.92 1142.28 1562.85 1138.09 1562.69 1128.02 1562.77 1117.95 1562.82 1107.88 1562.84 1104.35 1561.99 1101.34 1557.45 1099 1563.35 1099 1568 1099 1572.66 1099.01 1572.77 1099.01 1572.89 1099.16 1573 1099.25 1572.58 1099.58 1572.17 1099.92 1571.5 1100.7Z" fill="#482815" fill-rule="evenodd"/><path d="M1506.87 1141.99C1505.84 1139.86 1505.47 1138.22 1507.2 1135.94 1508.3 1138.49 1508.99 1140.65 1510.09 1142.57 1512.34 1146.45 1516 1146.99 1519.98 1146.47 1522.24 1146.17 1522.71 1144.68 1522.92 1142.59 1523.37 1138.22 1521.22 1135.78 1517.69 1134.03 1514.4 1132.4 1510.64 1131.48 1508.44 1128.07 1504.32 1121.69 1507.82 1113.71 1515.32 1113.11 1518.58 1112.84 1522.41 1112.98 1525.13 1114.52 1528.26 1116.29 1525.78 1120.42 1526 1123.72 1524.64 1121.68 1523.42 1119.54 1521.9 1117.65 1519.29 1114.4 1515.54 1114.21 1512.98 1116.69 1510.63 1118.96 1511.72 1122.2 1514.26 1124.67 1516.63 1126.97 1519.58 1128.01 1522.4 1129.34 1527.35 1131.68 1529.66 1135.54 1528.84 1141.04 1528.27 1144.83 1521.89 1148.93 1517.29 1149 1514.1 1149.05 1511.54 1146.4 1507.95 1147.28 1506.72 1147.58 1507.53 1144.13 1506.87 1141.99Z" fill="#492916" fill-rule="evenodd"/><path d="M1117.79 1127.81C1119.36 1128.63 1120.56 1129.19 1121.77 1129.73 1126.7 1131.93 1128.65 1135.98 1127.81 1141.32 1127.22 1145.14 1120.19 1149.35 1115.92 1148.98 1113.27 1148.75 1111.03 1146.03 1108.07 1147.58 1107.9 1147.67 1107.04 1146.97 1106.99 1146.58 1106.6 1143.35 1106.34 1140.11 1106.01 1136.57 1108.99 1137.27 1108 1139.97 1109.08 1141.44 1111 1144.03 1112.44 1146.89 1116.18 1146.53 1118.2 1146.33 1120.94 1147.39 1121.74 1144.6 1122.49 1141.99 1122.86 1139.08 1120.44 1136.73 1118.72 1135.06 1116.85 1133.88 1114.68 1133.02 1108.9 1130.7 1104.9 1124.81 1106.27 1120.85 1108.36 1114.85 1113.18 1113.62 1120.24 1114.09 1128 1114.62 1125.04 1119.74 1125.82 1125.28 1124.03 1122.35 1123.01 1120.69 1122.01 1119.01 1120.23 1116.02 1117.55 1115.52 1114.48 1115.87 1112.92 1116.05 1111.97 1116.84 1111.61 1118.38 1110.88 1121.55 1112.22 1123.87 1114.53 1125.71 1115.42 1126.42 1116.45 1126.94 1117.79 1127.81Z" fill="#492916" fill-rule="evenodd"/><path d="M1333.93 1138.28C1333.93 1127.39 1333.83 1117.07 1333.98 1106.75 1334.04 1102.71 1333.63 1099.59 1328 1100.99 1330.75 1097.69 1334.2 1098.3 1337.02 1097.26 1339.97 1096.18 1339.94 1098.66 1339.94 1100.8 1339.9 1113.35 1339.94 1125.89 1339.91 1138.44 1339.9 1141.65 1339.79 1144.83 1344 1147 1338.97 1147 1335.04 1147 1329.95 1147 1334.45 1145.12 1334.06 1141.94 1333.93 1138.28Z" fill="#492815" fill-rule="evenodd"/><path d="M1778.98 1120.1C1777.05 1118.28 1776.66 1115.6 1774 1115 1778.26 1115 1782.51 1115 1786.41 1115 1784.92 1123.21 1790.91 1129.17 1793.22 1136.31 1799.8 1129.19 1802.7 1117.71 1798.3 1115.06 1801.84 1115.06 1805.06 1115.06 1808 1115.06 1800.52 1124.57 1798.89 1137.03 1792.04 1148 1787.59 1138.42 1783.42 1129.45 1778.98 1120.1Z" fill="#4A2A16" fill-rule="evenodd"/><path d="M1391.96 1110.44C1393.4 1108.25 1394.57 1106.44 1396.14 1104 1399.04 1107.98 1393.64 1117.46 1405.32 1114.21 1402.27 1116.81 1398.85 1114.41 1397.84 1116.57 1396.88 1118.62 1397.38 1121.35 1397.35 1123.78 1397.3 1128.49 1397.32 1133.19 1397.34 1137.9 1397.38 1144.69 1398.97 1145.93 1406 1144.5 1403.54 1148.3 1399.58 1149.67 1395.94 1148.7 1392.14 1147.7 1390.65 1144.18 1390.92 1139.94 1391.29 1134.03 1391.07 1128.08 1390.98 1122.14 1390.95 1119.79 1392.3 1116.52 1387.46 1116.9 1385.59 1117.05 1385.69 1115.45 1386.79 1114.47 1388.3 1113.13 1390.04 1112.03 1391.96 1110.44Z" fill="#492815" fill-rule="evenodd"/><path d="M1818.08 1106.73C1819.22 1105.95 1820.9 1103.27 1820.59 1106.7 1820.02 1113.1 1821.98 1116.2 1829 1114.54 1820.71 1116.39 1820.71 1116.39 1820.71 1125.14 1820.71 1129.22 1820.76 1133.3 1820.7 1137.38 1820.62 1142.22 1821.94 1145.76 1828 1145.34 1825.13 1148.57 1821.98 1149.96 1818.75 1148.29 1815.89 1146.82 1814.66 1143.69 1814.73 1140.14 1814.84 1134.22 1814.83 1128.3 1814.73 1122.38 1814.69 1119.88 1816.03 1116.84 1811.23 1116.57 1808.66 1116.42 1810.75 1113.94 1811.84 1113.44 1814.71 1112.1 1816.43 1109.83 1818.08 1106.73Z" fill="#482815" fill-rule="evenodd"/><path d="M1931.92 1125.58C1931.92 1129.86 1931.94 1133.55 1931.91 1137.23 1931.88 1142.04 1933.05 1145.78 1939.37 1145.24 1936.53 1148.56 1933.28 1149.96 1929.97 1148.3 1926.77 1146.69 1925.69 1143.3 1925.79 1139.54 1925.96 1133.81 1925.89 1128.06 1925.81 1122.33 1925.78 1119.78 1927.09 1116.39 1922.16 1116.65 1920.44 1116.74 1920.85 1114.68 1922 1114.17 1926.21 1112.27 1928 1107.96 1931.9 1104 1931.31 1110.84 1931.49 1116.47 1941 1114.12 1937.58 1116.69 1933.71 1114.05 1932.46 1117.12 1931.52 1119.43 1932.05 1122.34 1931.92 1125.58Z" fill="#492815" fill-rule="evenodd"/><path d="M815.855 1118.29C814.396 1118.1 813.426 1118.05 812 1117.97 815.521 1114.95 819.771 1115.05 823.61 1113 824.948 1122.4 823.355 1131.4 823.786 1140.37 823.916 1143.09 824.009 1145.48 828 1147 822.526 1147 818.285 1147 814.756 1147 818.774 1137.84 816.205 1128.02 815.855 1118.29Z" fill="#4A2A16" fill-rule="evenodd"/><path d="M1089.46 1122.41C1088.72 1118.75 1088.72 1118.75 1085 1118.14 1088.3 1115.35 1092.32 1115.26 1097 1113 1097 1124.86 1097 1135.85 1097 1147 1094.42 1147 1090.69 1147 1087.32 1147 1091.66 1139.49 1088.51 1131 1089.46 1122.41Z" fill="#4A2A17" fill-rule="evenodd"/><path d="M1412.8 1121.03C1413.03 1116.9 1409.99 1118.63 1408 1117.6 1412.02 1116.04 1415.71 1114.6 1419.81 1113 1420.89 1124.54 1419 1135.79 1421 1147 1418.08 1147 1414.17 1147 1410.52 1147 1415.4 1139.06 1411.65 1130.08 1412.8 1121.03Z" fill="#4A2A17" fill-rule="evenodd"/><path d="M1667.37 1125.46C1667.66 1133 1666.7 1140.05 1668 1147 1665.23 1147 1661.33 1147 1658.57 1147 1662.17 1138.34 1659.61 1128.93 1660.21 1119.89 1660.41 1116.85 1657.41 1118.85 1656 1117.76 1659.16 1115.07 1663.23 1114.97 1667.37 1113 1667.37 1117.35 1667.37 1121.11 1667.37 1125.46Z" fill="#4B2B17" fill-rule="evenodd"/><path d="M878.877 1126.97C878.513 1122.61 880.993 1117.05 873 1117.65 876.977 1116.41 880.954 1115.18 884.774 1114 886.669 1125.02 882.839 1136.33 887 1147 884.1 1147 879.997 1147 875.833 1147 881.308 1141.11 877.931 1134.03 878.877 1126.97Z" fill="#492815" fill-rule="evenodd"/><path d="M1138.39 1130.44C1138.39 1127.86 1138.21 1125.84 1138.43 1123.86 1138.88 1119.78 1137.37 1117.73 1133 1117.67 1136.64 1116.45 1140.28 1115.23 1143.95 1114 1145.64 1124.99 1142.3 1136.3 1146 1147 1143.3 1147 1139.43 1147 1135.4 1147 1140.35 1142.37 1137.75 1136.4 1138.39 1130.44Z" fill="#482814" fill-rule="evenodd"/><path d="M2008.55 1138C2011.94 1138.78 2013.53 1140.7 2012.84 1143.76 2012.23 1146.52 2009.78 1145.97 2007.78 1145.92 2006.29 1145.89 2005.41 1145 2005.11 1143.54 2004.55 1140.83 2006.2 1139.35 2008.55 1138Z" fill="#482815" fill-rule="evenodd"/><path d="M1986.62 1139.62C1989.49 1136.68 1991.4 1138.24 1992.99 1140.36 1994.36 1142.17 1994.42 1144.31 1992.65 1145.88 1990.97 1147.38 1988.56 1147.24 1986.9 1146.26 1984.31 1144.72 1984.52 1142.28 1986.62 1139.62Z" fill="#492916" fill-rule="evenodd"/><path d="M2025.75 1145.71C2023.82 1142.96 2022.87 1140.69 2026.21 1138.64 2028.71 1137.1 2029.96 1138.64 2031.33 1140.15 2032.51 1141.47 2031.89 1142.69 2031.3 1144.19 2030.15 1147.06 2027.95 1145.64 2025.75 1145.71Z" fill="#4A2A16" fill-rule="evenodd"/><path d="M1839.43 1138C1842.53 1138.55 1844.38 1139.6 1843.93 1142.77 1843.65 1144.75 1842.88 1145.93 1840.78 1145.96 1838.94 1145.99 1837.07 1146.39 1836.25 1143.8 1835.34 1140.88 1837.01 1139.49 1839.43 1138Z" fill="#492916" fill-rule="evenodd"/><path d="M834.454 1114.05C835.871 1115.43 837.914 1116.06 836.551 1118.4 835.222 1120.67 833.15 1120.08 831.976 1119.34 830.114 1118.16 827.954 1119.26 826 1117.91 827.784 1114.84 830.519 1113.74 834.454 1114.05Z" fill="#4A2A16" fill-rule="evenodd"/><path d="M1143.12 1103.05C1140.15 1104.42 1137.54 1104.72 1137.04 1101.09 1136.68 1098.48 1138.8 1098.08 1140.97 1098.01 1145.04 1097.87 1144.18 1100.29 1143.12 1103.05Z" fill="#492916" fill-rule="evenodd"/><path d="M881.615 1098.06C884.623 1097.69 885.233 1098.96 884.931 1101.1 884.676 1102.91 883.63 1103.62 881.807 1103.94 879.332 1104.36 878.637 1102.63 878.166 1101.12 877.454 1098.84 879.113 1098.16 881.615 1098.06Z" fill="#482815" fill-rule="evenodd"/><path d="M1096.21 1098.85C1098.01 1102.58 1096.61 1103.99 1093.26 1104 1091.17 1104.01 1089.69 1102.92 1090.06 1100.82 1090.69 1097.24 1093.29 1097.66 1096.21 1098.85Z" fill="#482815" fill-rule="evenodd"/><path d="M1419.9 1102.27C1417.3 1104.6 1414.93 1104.64 1413.38 1101.99 1412.39 1100.3 1413.44 1098.5 1415.43 1098.15 1418.23 1097.64 1420.51 1098.3 1419.9 1102.27Z" fill="#482814" fill-rule="evenodd"/><path d="M1665.5 1103.77C1663.07 1104.19 1660.99 1104.29 1660.31 1101.8 1660.04 1100.77 1659.61 1099 1660.75 1098.52 1662.07 1097.96 1663.87 1097.82 1665.21 1098.27 1668.52 1099.39 1666.39 1101.65 1665.5 1103.77Z" fill="#492815" fill-rule="evenodd"/><path d="M811.555 744.946C810.163 765.275 792.027 779.489 773.825 779.704 761.638 779.848 749.786 777.314 737.696 776.927 732.02 776.746 730.891 779.41 730.625 783.937 730.011 794.397 723.796 800.116 713.101 800.159 696.659 800.225 680.2 799.817 663.78 800.446 648.321 801.039 632.906 802.741 617.467 803.896 612.556 804.263 607.796 803.77 603.678 800.652 598.291 796.572 596.258 790.819 598.054 784.666 599.736 778.901 606.323 774.662 613.579 773.313 627.722 770.683 641.735 773.736 655.809 773.658 665.763 773.603 675.649 773.243 685.448 771.601 687.238 771.301 689.012 771.161 690.79 770.918 697.216 770.038 703.577 770.356 706.449 761.738 709.685 752.028 718.49 747.896 728.922 746.491 734.324 745.755 739.258 746.257 744.733 746.293 753.227 747.486 761.128 748.63 769.161 749.194 778.835 749.874 782.721 743.886 781.434 733.018 779.858 719.698 776.284 706.448 780.137 692.649 783.477 680.685 790.041 671.501 799.766 664.422 803.021 662.052 802.799 660.814 800.799 657.825 793.651 647.142 784.414 638.126 777.184 627.482 766.908 612.354 760.32 595.857 756.178 578.191 751.504 558.254 751.811 537.676 747.815 517.621 742.214 489.503 721.755 469.418 693.225 464.798 654.6 458.544 619.24 467.392 585.803 486.601 568.797 496.371 553.883 508.635 542.564 524.367 526.978 546.03 521.094 570.381 526.318 597.081 531.131 621.676 540.909 643.912 556.111 663.868 571.052 683.48 590.326 697.214 612.999 706.633 618.156 708.776 618.237 706.877 618.642 702.45 621.179 674.727 612.435 649.422 602.575 624.274 601.447 621.399 599.485 621.58 597.244 621.654 588.072 621.958 579.139 621.214 571.024 616.282 558.4 608.61 556.203 597.347 559.924 584.417 562.351 575.984 569.318 573.328 577.811 575.851 590.847 579.723 600.57 588.003 608.23 598.909 609.5 600.717 609.861 602.601 613.177 601.275 617.294 599.629 617.747 598.748 614.731 595.224 607.23 586.463 605.324 576.331 609.979 565.625 612.639 559.508 617.004 555.016 624.49 554.686 632.026 554.353 635.715 559.589 639.071 564.727 643.344 571.267 645.004 578.782 644.1 586.59 643.62 590.739 645.608 591.477 648.958 591.19 649.963 591.104 651.173 591.338 651.934 590.862 654.572 589.212 658.95 591.221 660.231 588.211 661.417 585.423 657.895 583.247 656.516 580.772 650.873 570.643 654.657 555.762 664.448 549.838 669.816 546.591 678.003 547.833 682.238 553.259 687.588 560.114 689.844 568.063 688.473 576.822 688.351 577.607 688.069 578.4 688.125 579.171 688.245 580.801 686.894 583.086 689.575 583.738 691.861 584.293 691.927 581.914 692.702 580.718 696.811 574.38 699.441 567.079 705.557 562.058 709.75 558.616 713.979 555.639 719.71 557.92 725.755 560.326 726.821 565.861 726.914 571.251 727.232 589.67 722.787 595.416 704.604 600.844 701.488 601.774 700.917 604.18 700.249 606.68 694.304 628.959 694.374 651.768 695.554 674.445 696.253 687.89 697.444 701.5 701.229 714.67 702.584 719.388 704.606 723.613 707.166 727.697 710.273 732.652 708.614 736.623 704.161 739.52 699.754 742.386 696.019 740.634 693.25 736.761 687.397 728.575 684.787 719.07 683.204 709.384 679.7 687.954 677.645 666.336 678.417 644.625 678.885 631.49 679.701 618.282 683.005 605.402 683.441 603.703 685.828 601.246 683.311 600.07 681.029 599.004 678.226 597.217 675.326 599.372 668.192 604.671 659.895 606.731 651.25 607.777 650.453 607.874 649.542 608.384 648.895 608.142 637.928 604.043 629.958 610.273 621.585 615.638 618.93 617.339 617.982 618.539 619.164 621.759 623.491 633.545 628.339 645.148 631.647 657.307 633.079 662.572 633.912 667.928 634.19 673.256 634.808 685.111 636.342 696.961 635.39 708.86 635.117 712.271 636.095 713.711 639.699 714.345 645.638 715.389 651.51 716.311 657.579 716.374 666.623 716.468 671.041 719.753 673.552 727.394 677.422 739.169 669.199 747.984 656.818 747.099 641.077 745.973 625.696 743.545 610.932 738.206 549.421 715.963 511.985 672.537 497.605 609.186 492.977 588.796 492.574 568.233 497.745 547.917 502.792 528.09 512.932 510.929 526.854 495.831 547.642 473.286 572.122 456.181 600.792 445.197 617.254 438.89 634.164 434.762 651.897 432.945 673.908 430.69 695.233 432.342 716.062 439.3 746.453 449.452 765.307 470.569 774.819 500.898 779.555 516 780.263 531.492 781.987 546.936 785.125 575.045 793.004 601.196 812.01 623.24 819.291 631.683 827.814 639.274 832.71 649.623 834.596 653.607 836.39 657.52 836.872 662.06 838.15 674.111 829.666 679.863 821.778 686.009 816.917 689.797 811.36 692.899 809.82 700.042 808.799 704.253 809.473 708.076 809.546 712.307 810.261 717.638 810.778 722.534 811.355 727.952 812.099 733.77 811.589 739.087 811.555 744.946Z" fill="#482815" fill-rule="evenodd"/><path d="M702.793 817.2C709.731 817.824 716.139 818.206 722.526 818.824 728.149 819.368 731.796 824.174 731.211 829.925 730.744 834.515 723.752 839.164 718.307 838.363 699.135 835.542 680.102 836.652 660.977 839.366 651.905 840.653 642.936 842.545 632.572 843.638 639.214 847.18 645.599 846.802 651.541 848.049 675.244 853.023 698.922 858.002 720.308 870.224 725.146 872.989 730.016 875.601 734.092 879.659 738.406 883.955 737.437 888.053 734.324 891.899 731.363 895.558 727.307 897.432 722.648 894.696 712.649 888.824 702.335 883.722 691.503 879.51 671.043 871.555 650.122 865.156 629.042 859.161 618.916 856.28 609.048 852.595 599.931 847.072 595.351 844.297 594.411 840.192 595.304 835.577 596.085 831.545 599.168 830.247 603.182 829.488 619.564 826.391 635.957 823.457 652.481 821.181 664.971 819.461 677.428 817.672 690.611 817.386 694.851 816.68 698.56 817.15 702.793 817.2Z" fill="#482815" fill-rule="evenodd"/><path d="M624.089 951.997C616.914 945.301 614.367 937.329 615.13 927.527 616.709 924.258 618.776 921.706 619.975 918.787 622.411 912.855 627.529 912.185 632.009 913.677 653.607 920.868 675.013 928.655 696.458 936.314 697.904 936.83 699.114 938.027 700.792 939.121 702.118 948.944 696.916 955.618 690.563 962.199 687.857 968.266 682.353 969.983 676.987 972.606 661.739 975.954 648.127 973.328 635.381 964.121 631.646 959.832 625.23 958.73 624.089 951.997Z" fill="#482815" fill-rule="evenodd"/><path d="M642.995 878.481C668.824 888.812 694.19 899.036 719.548 909.277 725.637 911.735 728.417 917.683 726.293 923.584 724.297 929.13 718.875 931.518 712.464 928.997 694.516 921.938 676.711 914.504 658.77 907.426 641.199 900.494 623.547 893.771 605.896 887.049 598.252 884.139 595.191 878.282 598.062 871.553 600.818 865.093 603.609 863.687 610.28 866.121 621.081 870.063 631.784 874.28 642.995 878.481Z" fill="#492815" fill-rule="evenodd"/><path d="M746.574 962.103C748.001 967.56 745.709 971.306 741.711 973.203 738.372 974.788 734.474 974.026 731.881 970.769 729.098 967.274 729.733 963.327 731.656 959.707 734.71 953.959 741.895 954.999 746.574 962.103Z" fill="#492916" fill-rule="evenodd"/><path d="M781.368 956.886C786.102 962.201 786.152 969.074 781.847 972.579 778.659 975.173 772.641 974.095 770.327 970.329 768.158 966.798 768.945 963.068 770.568 959.658 772.885 954.791 777.046 955.828 781.368 956.886Z" fill="#492915" fill-rule="evenodd"/><path d="M813.509 973.904C807.761 971.38 807.464 966.441 808.415 961.601 809.015 958.546 811.247 956.24 814.798 956.032 819.562 955.752 823.053 957.255 823.833 962.712 824.705 968.816 822.138 972.863 816.973 973.906 816.013 974.101 814.99 973.937 813.509 973.904Z" fill="#492915" fill-rule="evenodd"/><path d="M811.432 746C811.043 740.775 810.972 735.182 811.008 729 812.771 734.072 811.701 739.883 811.432 746Z" fill="#FFFFFF" fill-rule="evenodd"/><path d="M745 746.568C740.419 746.956 735.489 747.027 730 746.992 734.427 745.199 739.574 746.338 745 746.568Z" fill="#FFFFFF" fill-rule="evenodd"/><path d="M703 817.115C699.724 817.911 696.127 818.057 692 817.983 695.109 814.517 698.93 816.526 703 817.115Z" fill="#FFFFFF" fill-rule="evenodd"/><path d="M808.996 713C807.168 709.621 808.377 705.386 808.58 701 808.977 704.621 809.016 708.521 808.996 713Z" fill="#FFFFFF" fill-rule="evenodd"/><path d="M1349.79 489.716C1360.44 503.197 1363.7 517.979 1361.21 534.52 1359.79 543.901 1357.34 552.308 1351.11 559.834 1344.15 568.231 1335.33 572.831 1325.08 574.361 1317.84 575.444 1310.43 576.284 1302.97 575.91 1299.7 575.745 1298.99 574.784 1299 571.714 1299.12 543.973 1299.07 516.231 1299.14 488.49 1299.16 482.272 1302.55 478.235 1309.99 477.421 1324.7 475.812 1338.38 478.59 1349.79 489.716Z" fill="#FFFFFF" fill-rule="evenodd"/><path d="M1155.92 627.296C1153.98 635.818 1152.69 643.946 1147.47 650.787 1139.53 661.207 1128.92 666.561 1116.11 667.801 1112.09 668.19 1108.01 667.895 1103.95 667.857 1094.46 667.766 1087.76 663.013 1085.75 654.064 1084.84 650.062 1083.97 645.973 1084.01 641.694 1084.2 620.452 1084.21 599.206 1084 577.964 1083.96 573.946 1085.11 572.986 1089.03 573 1101.63 573.047 1113.99 573.911 1126.15 577.769 1146.07 584.087 1154.73 599.764 1155.91 618.244 1156.09 621.065 1155.94 623.908 1155.92 627.296Z" fill="#FFFFFF" fill-rule="evenodd"/><path d="M1124.58 555.273C1117.74 558.958 1110.64 559.701 1103.61 559.969 1097.46 560.204 1089.21 562.716 1085.67 558.917 1082.61 555.624 1084.69 547.371 1084.67 541.311 1084.61 526.25 1084.65 511.189 1084.65 496.128 1084.65 482.605 1087.62 478.335 1100.92 477.193 1120.68 475.497 1140.5 484.878 1144.12 509.248 1146.14 522.826 1145.05 535.258 1136.8 546.609 1133.74 550.815 1129.31 552.823 1124.58 555.273Z" fill="#FFFFFF" fill-rule="evenodd"/><path d="M1734.58 887.883C1732.72 876.791 1732.93 866.111 1733.12 855.455 1733.54 831.397 1739.06 808.674 1754.12 789.455 1763.59 777.366 1776.2 769.892 1792.4 769.088 1818.24 767.805 1835.35 780.698 1847.98 801.525 1857.69 817.548 1861.63 835.214 1863.84 853.615 1865.18 864.727 1865.21 875.798 1864.68 886.801 1863.65 907.909 1859.28 928.391 1846.46 945.881 1828.5 970.398 1798.2 974.099 1774.21 959.141 1753.5 946.228 1743.99 925.875 1738 903.386 1736.69 898.45 1735.86 893.385 1734.58 887.883Z" fill="#FFFFFF" fill-rule="evenodd"/><path d="M2324.44 613.092C2321.12 626.885 2316.7 639.549 2308.75 650.993 2294.81 671.065 2266.56 678.708 2244.56 668.46 2226.11 659.863 2214.95 645.309 2206.91 627.241 2196.65 604.19 2193.81 579.922 2195.42 555.291 2196.83 533.662 2201.96 512.794 2215.77 494.946 2234.88 470.268 2266.51 466 2291.22 484.187 2309.98 497.985 2317.84 518.075 2323.22 539.607 2327.98 558.61 2326.98 577.986 2326.77 597.28 2326.71 602.381 2325.26 607.467 2324.44 613.092Z" fill="#FFFFFF" fill-rule="evenodd"/><path d="M1574.4 578.592C1576.08 583.219 1577.48 587.433 1579 592 1560.35 592 1542.07 592 1523 592 1532.37 565.778 1541.67 539.772 1551.6 512 1560.09 535.059 1567.41 556.516 1574.4 578.592Z" fill="#FFFFFF" fill-rule="evenodd"/><path d="M675.989 970.987C680.979 968.83 685.637 966.707 689.646 962.646 700.435 980.765 700.341 997.708 682.711 1011.92 682.32 1011.43 680.516 1007.34 679.153 1011.3 677.191 1017.01 672.416 1015.91 669.271 1015.93 660.738 1015.99 651.733 1016.07 643.79 1013.45 636.482 1011.03 629.673 1006.6 623.964 1000.15 616.272 991.455 614.851 980.562 610.44 970.756 609.883 969.52 609.716 967.863 610.776 967.424 617.589 964.598 617.971 956.511 623.211 952 626.126 955.79 630.214 958.606 634.225 961.96 635.994 964.497 635.234 966.552 634.213 968.652 632.917 971.317 629.886 973.356 630.752 976.808 631.8 980.984 633.601 984.938 636.374 988.211 642.007 994.858 649.669 998.121 657.891 999.808 662.164 1000.68 666.219 996.912 670.767 998.157 671.986 991.338 679.983 988.528 680.439 981.031 680.707 976.62 677.001 974.773 675.989 970.987Z" fill="#E19C35" fill-rule="evenodd"/><path d="M795.697 1126.09C800.76 1129.47 800.418 1134.17 799.336 1138.48 798.435 1142.07 789.078 1146.75 785.467 1145.9 782.524 1145.2 779.828 1143.99 780.374 1140.03 780.666 1137.91 780.18 1135.68 780.482 1133.56 780.955 1130.25 778.395 1125.15 781.803 1123.97 785.857 1122.57 791.245 1122.23 795.697 1126.09Z" fill="#FFFFFF" fill-rule="evenodd"/><path d="M786.297 1120.79C781.598 1121.57 779.565 1120.27 780.234 1115.82 780.529 1113.85 779.903 1111.72 780.369 1109.82 781.167 1106.56 777.549 1101.69 783.514 1100.26 788.749 1099.01 795.527 1102.36 797.768 1106.9 801.478 1114.41 796.567 1120.67 786.297 1120.79Z" fill="#FFFFFF" fill-rule="evenodd"/><path d="M995.734 1112.98C997.925 1122.44 997.462 1131.05 992.84 1139.31 987.376 1149.07 974.682 1149.68 968.427 1140.33 962.611 1131.63 962.446 1113.34 968.401 1105.18 971.502 1100.93 976.272 1098.4 981.325 1099.12 987.948 1100.06 992.697 1104.27 994.77 1110.96 994.938 1111.5 995.292 1111.99 995.734 1112.98Z" fill="#FFFFFF" fill-rule="evenodd"/><path d="M1760.84 1120.36C1758.49 1121.94 1756.52 1123.46 1754.28 1124.21 1748.38 1126.19 1746.16 1124.52 1746.15 1118.48 1746.14 1115.04 1746.03 1111.6 1746.19 1108.17 1746.29 1105.89 1744.98 1102.55 1748.08 1101.79 1751.47 1100.97 1755.31 1100.12 1758.57 1102.94 1762.39 1106.25 1765.09 1110.63 1760.84 1120.36Z" fill="#FFFFFF" fill-rule="evenodd"/><path d="M1632.65 1116C1639.99 1116.72 1641.79 1118.57 1641.88 1125.11 1641.93 1129.11 1641.61 1133.14 1641.96 1137.12 1642.34 1141.39 1639.85 1143.31 1636.63 1144.54 1633.56 1145.7 1631.03 1144.62 1628.86 1141.98 1622.47 1134.19 1624.21 1119.87 1632.65 1116Z" fill="#FFFFFF" fill-rule="evenodd"/><path d="M1967.93 1122.75C1967.93 1128.08 1967.76 1132.87 1967.99 1137.65 1968.18 1141.51 1965.98 1143.87 1962.95 1144.7 1959.68 1145.6 1956.7 1144.5 1954.61 1140.98 1950.72 1134.44 1949.73 1127.97 1952.85 1120.9 1954.52 1117.12 1957.14 1115.63 1961.23 1116.08 1965.1 1116.5 1967.27 1118.45 1967.93 1122.75Z" fill="#FFFFFF" fill-rule="evenodd"/><path d="M849.324 1142.51C845.541 1136.03 850.342 1128.2 857.674 1128 858.275 1127.99 858.996 1128.02 859.462 1128.31 860.27 1128.82 860.166 1140.38 859.166 1141.03 856.33 1142.87 853.582 1145.81 849.324 1142.51Z" fill="#FFFFFF" fill-rule="evenodd"/><path d="M1693.92 1132.08C1693.5 1136.52 1695.41 1141.02 1691.23 1143.91 1688.64 1145.71 1686.44 1145.16 1684.17 1143.16 1681.81 1141.07 1681.43 1138.01 1682.76 1135.96 1684.78 1132.85 1687.35 1129.85 1690.86 1128.37 1693.75 1127.14 1694.11 1129.13 1693.92 1132.08Z" fill="#FFFFFF" fill-rule="evenodd"/><path d="M1299.06 1126.01C1299.48 1120.59 1301.44 1116.74 1306.94 1116.07 1312.01 1115.45 1317.25 1119.31 1318.35 1125.14 1319.13 1129.34 1319.35 1134.03 1318.19 1138.06 1317.06 1142.02 1315.24 1146.87 1308.8 1145.87 1303.83 1145.09 1299.54 1140.59 1299.11 1134.83 1298.9 1132.08 1299.06 1129.3 1299.06 1126.01Z" fill="#FFFFFF" fill-rule="evenodd"/><path d="M1175.52 1144.67C1167.89 1147.24 1165.35 1146.27 1161.97 1140.15 1158.9 1134.59 1157.95 1128.74 1160.36 1122.85 1161.74 1119.47 1163.55 1116.17 1168.41 1116.01 1173.9 1115.82 1176.76 1119.26 1178.19 1123.18 1180.82 1130.36 1181.1 1137.76 1175.52 1144.67Z" fill="#FFFFFF" fill-rule="evenodd"/><path d="M1451.35 1119.26C1456.09 1125.27 1457.1 1131.39 1454.87 1138.22 1453.59 1142.15 1452 1145.23 1447.3 1145.9 1442.29 1146.61 1439.62 1143.37 1437.77 1140.03 1434.42 1133.99 1434.08 1127.34 1436.9 1120.97 1439.51 1115.07 1445.71 1114.33 1451.35 1119.26Z" fill="#FFFFFF" fill-rule="evenodd"/><path d="M588.76 604.996C583.113 604.469 578.543 602.872 575.761 597.887 574.891 596.329 574.638 594.521 575.692 593.424 576.812 592.258 578.329 593.792 579.279 594.474 582.938 597.102 587.053 599.131 590.065 602.649 591.255 604.04 591.765 605.078 588.76 604.996Z" fill="#F3AA39" fill-rule="evenodd"/><path d="M675.469 970.752C684.082 978.819 684.096 983.391 675.988 991.801 675.568 992.237 675.189 992.736 674.704 993.083 672.184 994.888 672.576 1000.12 670.652 1000.11 662.748 1000.08 654.545 1003.12 646.9 998.134 641.715 994.752 636.25 991.876 633.083 986.193 629.595 979.933 625.911 973.747 633.225 967.47 634.053 966.759 633.855 964.839 634.148 963 639.518 964.627 644.211 968.024 649.646 970.09 658.133 973.317 666.508 972.335 675.469 970.752Z" fill="#D59432" fill-rule="evenodd"/></g></svg>